<?xml version="1.0"?>

<svg width="2600" height="600" viewBox="0 0 2600 600" xmlns="http://www.w3.org/2000/svg">
    <g id="Group">
        <path id="Path" fill="#000000" stroke="none" d="M 1572.400024 43.266663 C 1570.533325 45.666687 1573.333374 49 1577.333374 49 C 1579.06665 49 1581.333374 50.333313 1582.533325 52.200012 C 1583.599976 54.06665 1585.866699 55.93335 1587.466675 56.333313 C 1590.266724 57.266663 1590.400024 57.799988 1589.466675 69.533325 C 1588.93335 76.200012 1588 87.666687 1587.466675 95 C 1586.800049 102.333313 1586 109.266663 1585.466675 110.466675 C 1583.866699 114.333313 1573.599976 121.666687 1568 123 C 1564.133301 124.06665 1562.533325 125.266663 1562.266724 127.400024 C 1561.866699 129.533325 1562.666626 130.466675 1565.199951 131.133362 L 1568.666626 131.93335 L 1568.666626 153.666687 C 1568.666626 172.06665 1568.400024 175.533325 1566.666626 176.200012 C 1564.266724 177.133362 1560.666626 184.866638 1560.666626 189.133362 C 1560.666626 190.866638 1561.599976 193.266663 1562.800049 194.599976 C 1565.733276 197.666687 1564.133301 199.666687 1555.06665 203.533325 C 1551.199951 205.266663 1547.06665 207.133362 1546 207.666687 C 1543.599976 208.733337 1544 201.799988 1542.133301 294.333313 C 1541.333374 332.866669 1540.266724 381.933319 1539.733276 403.266663 L 1538.93335 442.333344 L 1501.733276 442.333344 C 1459.866699 442.333344 1459.06665 442.466675 1453.333374 451.666656 C 1449.333374 457.933319 1444.533325 458.733337 1438.800049 454.200012 C 1435.466675 451.666656 1435.333374 450.866669 1435.333374 439 C 1435.333374 432.066681 1435.866699 426.066681 1436.666626 425.666656 C 1439.06665 424.200012 1438 418.866669 1434.666626 415.666656 C 1431.866699 413.133331 1431.333374 411.266663 1431.333374 405.399994 C 1431.333374 401.533325 1432 397.133331 1432.93335 395.799988 C 1435.599976 391.533325 1432.133301 374.866669 1426.93335 367.399994 C 1424.533325 363.799988 1422 361 1421.199951 361 C 1419.199951 361 1413.333374 367.533325 1410.666626 373 C 1408 378.200012 1407.733276 386.733337 1409.733276 401.533325 C 1410.93335 410.600006 1410.800049 410.733337 1406.93335 415.266663 C 1403.199951 419.533325 1402.93335 420.200012 1404.400024 424.200012 C 1406.533325 429.933319 1406.533325 449.266663 1404.400024 451.399994 C 1402.133301 453.666656 1389.333374 453.399994 1387.466675 451.133331 C 1386.666626 450.200012 1383.06665 449 1379.599976 448.466675 C 1376.133301 448.066681 1370.93335 446.333344 1368 444.600006 C 1363.199951 441.933319 1360.800049 441.666656 1345.866699 441.666656 C 1329.866699 441.666656 1328.93335 441.799988 1323.599976 445.266663 C 1320.533325 447.399994 1316.666626 449 1314.93335 449 C 1308.400024 449 1303.466675 451.666656 1303.06665 455.399994 C 1302.666626 459 1302.666626 459 1289.733276 459.399994 L 1276.666626 459.799988 L 1276.666626 443.133331 L 1276.666626 426.466675 L 1273.06665 426.066681 C 1269.733276 425.666656 1269.333374 425 1268.93335 420.200012 C 1268.666626 415.933319 1267.866699 414.466675 1265.866699 413.933319 C 1263.866699 413.399994 1263.333374 412.066681 1263.333374 407 C 1263.333374 401.933319 1262.800049 400.600006 1260.666626 400.066681 C 1258.533325 399.533325 1258 398.200012 1258 394.333344 C 1258 391.533325 1257.199951 388.600006 1256.133301 387.799988 C 1255.06665 386.866669 1253.733276 384.466675 1253.333374 382.333344 C 1252.400024 378.066681 1249.466675 375 1247.466675 376.333344 C 1246.666626 376.733337 1245.333374 379.533325 1244.533325 382.333344 C 1243.599976 385.266663 1242.533325 387.666656 1242 387.666656 C 1241.466675 387.666656 1240.533325 390.333344 1240.133301 393.666656 C 1239.466675 397.533325 1238.533325 399.666656 1237.199951 399.666656 C 1235.866699 399.666656 1235.333374 401.399994 1235.333374 406.066681 C 1235.333374 411.266663 1234.800049 412.600006 1232.400024 413.666656 C 1230.133301 414.600006 1229.06665 416.466675 1228.533325 420.333344 C 1227.599976 427.533325 1226.266724 423.933319 1225.733276 412.066681 C 1225.333374 405.133331 1224.533325 401.799988 1222.800049 399.799988 C 1220.266724 397 1212.666626 395.933319 1212.666626 398.333344 C 1212.666626 399 1211.866699 399.666656 1210.800049 399.666656 C 1209.599976 399.666656 1208.666626 402.066681 1208.133301 407.266663 C 1205.733276 430.066681 1203.333374 431.133331 1203.333374 409.266663 C 1203.199951 383.399994 1200.666626 303.533325 1199.599976 295.799988 C 1198.133301 285 1196 285.799988 1193.733276 297.93335 C 1191.866699 307.666687 1191.733276 308.06665 1190.266724 304.733337 C 1189.466675 302.733337 1188.133301 285.666687 1187.333374 266.733337 C 1186.533325 247.799988 1185.06665 213.133362 1184 189.666687 C 1182.93335 166.200012 1182.133301 142.733337 1182.266724 137.533325 C 1182.266724 132.333313 1182 127.266663 1181.466675 126.466675 C 1179.733276 123.799988 1178 125 1178 128.733337 C 1178 130.866638 1177.733276 132.866638 1177.333374 133.266663 C 1176.93335 133.533325 1176.400024 143.799988 1176.133301 155.799988 C 1175.199951 188.866638 1169.199951 297.533325 1167.866699 303.93335 C 1166.666626 309.93335 1164.93335 308.200012 1164 299.93335 C 1162.800049 289.799988 1162.133301 287.400024 1160.266724 288.06665 C 1157.866699 288.866638 1155.599976 323.266663 1154.400024 377.666656 L 1153.333374 425.666656 L 1144 425.666656 L 1134.666626 425.666656 L 1134.666626 420.333344 L 1134.666626 415 L 1106.666626 415 L 1078.666626 415 L 1078.266724 420.600006 L 1077.866699 426.333344 L 1071.866699 426.333344 C 1066.666626 426.333344 1065.733276 426.733337 1064.666626 429.799988 C 1063.866699 431.666656 1063.333374 435 1063.333374 437.133331 C 1063.333374 439.266663 1062.133301 442.200012 1060.666626 443.666656 C 1058.266724 446.066681 1058 448.066681 1058 462.866669 C 1058 475.266663 1057.599976 479.666656 1056.133301 480.866669 C 1054.800049 482.066681 1051.199951 481.933319 1041.866699 480.466675 C 1018.93335 476.733337 967.733337 475.133331 878.666687 475 C 822.799988 475 778.93335 475.666656 755.333313 476.866669 C 735.200012 477.799988 717.200012 478.733337 715.333313 478.866669 L 712 479 L 711.599976 441.933319 L 711.333313 405 L 682.533325 405 L 653.733337 405 L 645.06665 413.666656 L 636.400024 422.466675 L 636.533325 441 L 636.799988 459.666656 L 629.333313 459.666656 L 622 459.666656 L 622 441.666656 L 622 423.666656 L 598.666687 423.666656 L 575.333313 423.666656 L 575.200012 411.933319 L 575.200012 400.333344 L 565.599976 392.066681 L 556.133362 383.666656 L 540.666687 383.666656 L 525.200012 383.666656 L 518.133362 392.466675 L 511.200012 401.133331 L 510.93335 421.399994 L 510.666687 441.666656 L 505.733337 442.066681 L 500.799988 442.466675 L 500.400024 425.399994 L 500 408.333344 L 473.733337 407.933319 L 447.333344 407.666656 L 447.333344 398.333344 L 447.333344 389 L 438.666656 389 L 430 389 L 430 382.333344 L 430 375.666656 L 394.399994 375.933319 L 358.666656 376.333344 L 358.266663 382.600006 L 357.866669 389 L 352.133331 389 C 348.933319 389 345.600006 389.799988 344.799988 390.733337 C 343.866669 391.933319 343.200012 403.266663 343.066681 422.866669 L 342.666656 453.266663 L 335.066681 453.799988 L 327.466675 454.333344 L 327.066681 435.266663 L 326.666656 416.333344 L 297.733337 415.933319 L 268.666656 415.666656 L 268.666656 410.333344 C 268.666656 405.133331 268.666656 405.133331 262.933319 404.733337 L 257.333344 404.333344 L 256.933319 397.933319 L 256.533325 391.533325 L 242.933319 391.933319 L 229.333328 392.333344 L 228.666672 398.333344 C 228 404.333344 228 404.333344 222.266663 404.733337 L 216.666672 405.133331 L 216.666672 448.200012 L 216.666672 491.266663 L 207.733337 497.399994 C 190 509.666656 173.333328 510.333344 150.399994 499.933319 C 120.266663 486.066681 102.133331 486.066681 74.666664 499.533325 C 56.800003 508.200012 58.133331 507.933319 40 508.866669 C 30.400002 509.399994 24.133335 510.200012 24.266666 511 C 24.799999 513 36.933334 513.400024 49.866669 511.799988 C 59.599998 510.600006 63.599998 509.266663 76 503 C 102.400002 489.933319 117.866669 489.799988 146.666672 502.600006 L 162.666672 509.666656 L 178 509.666656 C 195.46666 509.666656 199.733337 508.333344 212.933334 498.333344 L 220.666672 492.600006 L 220.933334 450.466675 L 221.333328 408.333344 L 226.933334 407.933319 L 232.666672 407.533325 L 232.666672 401.533325 L 232.666672 395.666656 L 243.333344 395.666656 L 254 395.666656 L 254 401.533325 C 254 407.266663 254.133331 407.399994 259.200012 408.200012 C 264.133331 409 264.533325 409.266663 264.933319 414.066681 L 265.333344 419 L 294.399994 419.399994 L 323.333344 419.666656 L 323.333344 438.333344 L 323.333344 457 L 334.666656 457 L 346 457 L 346 435.933319 C 346 424.466675 346.399994 410.066681 346.933319 403.933319 L 347.733337 393 L 354.799988 393 L 361.866669 393 L 362.266663 385.933319 L 362.666656 379 L 394.266663 378.600006 L 425.866669 378.333344 L 426.266663 385.266663 L 426.666656 392.333344 L 434.933319 392.733337 L 443.200012 393.133331 L 443.600006 402.066681 L 444 411 L 470.399994 411.399994 L 496.666687 411.666656 L 496.666687 428.333344 L 496.666687 445 L 505.333313 445 L 514 445 L 514 424.333344 L 514 403.533325 L 520.266663 395.666656 L 526.666687 387.666656 L 541.333313 387.666656 L 556.133362 387.666656 L 563.866638 395.533325 L 571.599976 403.399994 L 571.866638 415.133331 L 572 427 L 594.93335 427.399994 L 617.866638 427.666656 L 618.266663 445.399994 L 618.666687 463 L 629.333313 463 L 640 463 L 640.400024 443.533325 L 640.799988 424.066681 L 648.533325 415.799988 L 656.400024 407.666656 L 682.266663 407.933319 L 708 408.333344 L 708.400024 445.399994 L 708.666687 482.333344 L 730.400024 481.533325 C 742.266663 481.133331 764 480.333344 778.666687 479.799988 C 863.733337 476.600006 1008.266724 479.133331 1040.93335 484.466675 C 1051.866699 486.200012 1054.400024 486.333344 1057.599976 484.733337 L 1061.333374 483 L 1061.333374 465.933319 C 1061.333374 451 1061.599976 448.600006 1063.733276 447.533325 C 1065.199951 446.600006 1066 444.600006 1066 441 C 1066 435 1068.533325 432.200012 1068.800049 437.933319 C 1068.93335 439.933319 1069.06665 442.866669 1069.199951 444.333344 C 1069.333374 445.799988 1070.266724 447 1071.333374 447 C 1072.800049 447 1073.199951 445.666656 1072.93335 441.799988 C 1072.666626 438.866669 1071.866699 435.133331 1071.199951 433.399994 C 1070.133301 430.466675 1070.400024 430.333344 1076 430.333344 L 1082 430.333344 L 1082 424.333344 L 1082 418.333344 L 1106.533325 418.333344 L 1131.199951 418.333344 L 1130.93335 423.933319 L 1130.666626 429.666656 L 1142.400024 430.066681 C 1150.400024 430.333344 1154.93335 429.933319 1156.266724 428.733337 C 1157.866699 427.533325 1158.133301 424.066681 1158 411.799988 C 1157.599976 392.066681 1160 309.266663 1160.93335 308.200012 C 1161.466675 307.799988 1162.133301 309.266663 1162.666626 311.533325 C 1163.199951 313.799988 1164 315.666687 1164.400024 315.666687 C 1168.93335 315.533325 1172.400024 304.733337 1173.199951 288.333313 C 1177.599976 199.266663 1178.533325 186.333313 1179.866699 187.799988 C 1180.266724 188.06665 1181.466675 213.799988 1182.666626 245 C 1184.666626 295.799988 1185.06665 302.333313 1187.599976 308.599976 C 1189.06665 312.466675 1191.06665 315.666687 1192 315.666687 C 1192.93335 315.666687 1194.266724 313.400024 1194.93335 310.599976 C 1196.133301 306.06665 1196.266724 306.733337 1197.06665 317.666656 C 1197.599976 324.200012 1198.400024 352.066681 1198.800049 379.399994 L 1199.733276 429.133331 L 1204.533325 428.733337 C 1209.733276 428.333344 1209.866699 428.200012 1212.133301 409.933319 C 1212.666626 405.799988 1213.866699 403.133331 1215.333374 402.333344 C 1218.93335 400.333344 1220.400024 403.266663 1221.466675 414.600006 C 1222.400024 425.533325 1224.800049 429.666656 1229.599976 428.733337 C 1231.333374 428.466675 1232.133301 426.866669 1232.400024 422.733337 C 1232.800049 418.200012 1233.333374 417.133331 1235.733276 416.733337 C 1238.266724 416.333344 1238.533325 415.666656 1238.133301 409.933319 C 1237.866699 404.333344 1238.133301 403.666656 1240.533325 403.666656 C 1242.93335 403.666656 1243.333374 402.866669 1243.333374 398.600006 C 1243.333374 395.799988 1244.266724 392.333344 1245.333374 390.866669 C 1246.400024 389.533325 1247.333374 387 1247.333374 385.266663 C 1247.333374 383.666656 1248 382.333344 1248.666626 382.333344 C 1249.466675 382.333344 1250 383.399994 1250 384.733337 C 1250 386.066681 1250.93335 388.333344 1252 389.799988 C 1253.06665 391.133331 1254 394.600006 1254 397.399994 C 1254 401.399994 1254.533325 402.733337 1256.666626 403.266663 C 1258.800049 403.799988 1259.333374 405.133331 1259.333374 409.799988 C 1259.333374 414.866669 1259.866699 415.933319 1262.666626 417 C 1265.466675 418.066681 1266 419.133331 1266 423.533325 C 1266 427.933319 1266.400024 428.866669 1269.06665 429.266663 C 1271.866699 429.666656 1272 430.333344 1272.666626 446.333344 L 1273.333374 463 L 1289.733276 463.399994 L 1306 463.799988 L 1306 459.933319 C 1306 454.866669 1308.266724 453 1314.266724 453 C 1317.466675 453 1321.466675 451.666656 1325.599976 449 C 1331.466675 445.266663 1332.666626 445 1345.466675 445 C 1357.199951 445 1360.133301 445.399994 1366.266724 448.333344 C 1370.133301 450.200012 1375.199951 451.666656 1377.466675 451.666656 C 1379.733276 451.666656 1383.199951 452.866669 1385.06665 454.333344 C 1389.333374 457.666656 1402.533325 458.066681 1407.06665 454.866669 C 1409.733276 453 1410 451.799988 1410 440.333344 C 1410 433.533325 1409.333374 426.200012 1408.666626 424.200012 C 1407.466675 421.133331 1407.733276 420.066681 1410.666626 417 C 1414.533325 413 1415.06665 406.200012 1412.533325 392.466675 C 1410.800049 382.866669 1412.400024 375.133331 1417.199951 369.533325 C 1420.800049 365.266663 1422.400024 365.933319 1426.266724 373.399994 C 1429.199951 379.266663 1429.599976 386.600006 1428 404.200012 C 1427.06665 413.133331 1427.199951 413.399994 1431.199951 417.533325 C 1434.93335 421.399994 1435.199951 422.066681 1433.333374 424.466675 C 1432 426.200012 1431.466675 430.600006 1431.333374 439.933319 C 1431.333374 452.600006 1431.333374 452.733337 1435.466675 456.200012 C 1438.666626 458.866669 1440.93335 459.666656 1446.133301 459.666656 C 1452.266724 459.666656 1452.800049 459.399994 1455.866699 454.600006 C 1461.733276 445.266663 1459.599976 445.666656 1503.199951 445.666656 L 1542.666626 445.666656 L 1542.93335 442.333344 C 1543.599976 435.799988 1547.466675 226.866638 1547.199951 219.133362 C 1546.93335 212.333313 1547.199951 211 1549.466675 210.200012 C 1550.800049 209.666687 1554 208.466675 1556.533325 207.533325 C 1562.266724 205.400024 1568.666626 200.06665 1568.666626 197.266663 C 1568.666626 196.200012 1567.733276 194.200012 1566.533325 192.866638 C 1563.599976 189.533325 1565.599976 180.866638 1569.733276 179 C 1572.666626 177.666687 1572.666626 177.266663 1572.666626 153.93335 C 1572.666626 131.266663 1572.533325 130.06665 1570 129.400024 C 1566 128.333313 1566.800049 126.333313 1571.333374 126.333313 C 1574.400024 126.333313 1577.06665 124.599976 1582.666626 119 C 1590.533325 111.266663 1590.93335 109.93335 1590.133301 93.533325 C 1589.866699 90.466675 1590.400024 87.533325 1591.199951 87 C 1592.266724 86.466675 1592.666626 90.200012 1592.666626 99.133362 L 1592.666626 112.200012 L 1600.400024 119.266663 C 1604.800049 123.400024 1609.199951 126.333313 1611.06665 126.333313 C 1612.666626 126.333313 1614 126.866638 1614 127.666687 C 1614 128.333313 1613.06665 129 1612 129 C 1610.93335 129 1610 129.133362 1610 129.266663 C 1609.866699 129.533325 1609.599976 140.333313 1609.199951 153.400024 C 1608.400024 176.200012 1608.533325 177.266663 1611.06665 177.93335 C 1615.599976 179 1618.93335 191.400024 1615.333374 193.666687 C 1614.666626 194.06665 1614 195.93335 1614 197.666687 C 1614 200.333313 1615.599976 201.666687 1623.866699 205.666687 C 1629.199951 208.200012 1634.266724 210.333313 1634.93335 210.333313 C 1636.133301 210.333313 1636.666626 227.400024 1638.800049 342.333344 C 1639.199951 365.399994 1639.733276 385.133331 1640 385.933319 C 1640.400024 386.866669 1641.466675 387.266663 1642.533325 386.866669 C 1643.866699 386.333344 1644.666626 387.399994 1645.333374 390.333344 C 1646.800049 397.133331 1651.333374 406.333344 1653.06665 406.333344 C 1656.93335 406.333344 1658 403 1658 390.466675 C 1658.133301 379.533325 1658.533325 377.133331 1660.800049 374.333344 L 1663.599976 371.133331 L 1666.133301 374.333344 C 1668.133301 377 1668.666626 379.399994 1668.400024 385.666656 L 1668 393.666656 L 1808.800049 394.066681 L 1949.733276 394.333344 L 1959.466675 405.133331 C 1967.333374 413.933319 1969.733276 415.799988 1972.533325 415.399994 L 1976 415 L 1976.400024 391.266663 C 1976.666626 375.133331 1976.266724 366.733337 1975.199951 364.733337 C 1974 362.466675 1974 361.666656 1975.199951 361.266663 C 1976.133301 361 1978.400024 359.399994 1980.133301 357.799988 C 1983.06665 355.266663 1983.333374 354.600006 1982 351.133331 C 1981.06665 348.733337 1981.06665 346.733337 1981.866699 345.799988 C 1982.666626 344.866669 1983.06665 341.266663 1983.06665 337.666656 C 1982.93335 331.133331 1986.93335 310.733337 1988.666626 308.599976 C 1990 307 1994.400024 328.600006 1994.400024 336.600006 C 1994.400024 340.866669 1995.06665 344.200012 1996.133301 345.133331 C 1997.733276 346.333344 1997.599976 347.266663 1995.733276 350.333344 C 1993.06665 355 1994.133301 357.933319 1999.466675 360.200012 C 2002 361.266663 2003.06665 362.333344 2002.133301 362.866669 C 2001.199951 363.533325 2000.666626 371.933319 2000.666626 389.399994 C 2000.666626 413.533325 2000.800049 415.266663 2003.333374 417.399994 C 2006 419.666656 2006.133301 421.133331 2006 454.066681 L 2005.866699 488.333344 L 2026.93335 488.333344 L 2048 488.333344 L 2048.399902 484.066681 L 2048.800049 479.799988 L 2060.399902 479.399994 L 2072 479 L 2072.399902 471.266663 L 2072.800049 463.666656 L 2080 463.666656 L 2087.199951 463.666656 L 2087.600098 471.266663 L 2088 479 L 2099.466553 479.399994 C 2109.733398 479.666656 2111.06665 480.066681 2111.733398 482.333344 C 2112.399902 484.733337 2113.600098 485 2126.533447 485 L 2140.800049 485 L 2141.600098 489 C 2142 491.266663 2143.466553 493.666656 2144.800049 494.333344 C 2148.399902 496.333344 2194.399902 496.066681 2196.399902 494.066681 C 2197.333252 493.133331 2198 490.866669 2198 488.866669 C 2198 483.933319 2201.06665 481.799988 2207.199951 482.733337 C 2213.600098 483.533325 2215.733398 482.333344 2214.666748 478.200012 C 2213.600098 473.133331 2215.733398 470.866669 2220.266602 472.466675 C 2223.466553 473.533325 2225.466553 473 2234.93335 467.666656 L 2246 461.666656 L 2246 447.266663 L 2246 433 L 2260.666748 433 L 2275.333252 433 L 2275.333252 446.333344 L 2275.333252 459.666656 L 2279.733398 463.666656 C 2283.199951 466.866669 2285.199951 467.533325 2290.266602 467.666656 C 2296.266602 467.666656 2296.666748 467.933319 2297.733398 471.933319 C 2298.800049 476.066681 2299.333252 476.333344 2305.466553 477 L 2312 477.666656 L 2312 483.666656 C 2312 488.066681 2312.533447 489.666656 2314 489.666656 C 2315.600098 489.666656 2316 487.933319 2316 481.666656 L 2316 473.666656 L 2308.93335 473.266663 C 2302.666748 472.866669 2301.733398 472.466675 2300.533447 469.266663 C 2298.800049 464.866669 2297.06665 463.666656 2291.733398 463.666656 C 2289.466553 463.666656 2285.733398 462.600006 2283.466553 461.266663 L 2279.466553 459 L 2279.06665 444.333344 L 2278.666748 429.666656 L 2260.800049 429.666656 L 2242.800049 429.666656 L 2243.199951 443.799988 L 2243.466553 458.066681 L 2239.466553 460.866669 C 2233.333252 465.266663 2226 468.066681 2218.666748 468.866669 C 2212.266602 469.666656 2212 469.799988 2211.333252 474.333344 C 2210.800049 478.066681 2210 479.133331 2207.333252 479.399994 C 2196 480.600006 2195.466553 480.866669 2195.06665 486.066681 L 2194.666748 491 L 2171.466553 491.399994 C 2147.466553 491.799988 2144.666748 491.266663 2144.666748 486.200012 C 2144.666748 482.333344 2140.399902 481 2127.466553 481 C 2116.266602 481 2115.333252 480.866669 2115.333252 478.333344 C 2115.333252 475.799988 2114.399902 475.666656 2103.333252 475.666656 L 2091.466553 475.666656 L 2091.06665 467.933319 L 2090.666748 460.333344 L 2080 460.333344 L 2069.333252 460.333344 L 2069.333252 467.666656 L 2069.333252 475 L 2061.333252 475.266663 C 2046.666748 475.933319 2044.666748 476.600006 2044.666748 481 L 2044.666748 485 L 2027.333252 485 L 2010 485 L 2009.866699 465.933319 C 2009.866699 455.533325 2009.733276 440.466675 2009.733276 432.600006 C 2009.599976 420.733337 2009.199951 417.666656 2007.199951 415.133331 C 2004.93335 412.200012 2004.666626 409.399994 2004.666626 388.733337 C 2004.666626 373.266663 2005.199951 365 2006.133301 364.066681 C 2008.400024 361.799988 2006.533325 358.333344 2002 356.866669 C 1997.466675 355.266663 1997.199951 354.333344 2000 349.133331 C 2001.599976 345.799988 2001.599976 345 2000.133301 343.799988 C 1999.06665 342.866669 1998.266724 339.799988 1998.266724 336.600006 C 1998.400024 328.600006 1992.400024 302.200012 1990.266724 301.266663 C 1989.199951 301 1987.733276 301.533325 1986.800049 302.466675 C 1984.533325 304.866638 1980.800049 321.399994 1979.733276 332.733337 C 1979.333374 337.666656 1978.400024 342.333344 1977.733276 343.266663 C 1977.06665 344.200012 1976.800049 346.733337 1977.333374 348.866669 C 1978.666626 354.866669 1978.666626 354.733337 1974.533325 357.133331 C 1971.599976 358.733337 1970.800049 360.066681 1971.199951 362.466675 C 1972.266724 369.399994 1972.666626 410.333344 1971.733276 410.333344 C 1971.06665 410.333344 1966.133301 405.799988 1960.666626 400.333344 L 1950.800049 390.333344 L 1810.800049 390.333344 L 1670.93335 390.333344 L 1671.733276 382.866669 C 1672.400024 375.933319 1672.266724 375 1668.93335 371.533325 C 1664.266724 366.600006 1661.733276 366.733337 1657.599976 372.066681 C 1654.93335 375.666656 1654.400024 377.533325 1654.800049 382.466675 C 1655.199951 385.666656 1654.93335 391 1654.266724 394.333344 L 1653.199951 400.333344 L 1650.800049 393.133331 C 1649.466675 389.266663 1647.333374 385 1646 383.666656 C 1643.866699 381.533325 1643.599976 374.466675 1642.133301 302.200012 C 1641.199951 258.599976 1640.400024 219.666687 1640.266724 215.666687 L 1640 208.333313 L 1630.666626 204.599976 C 1619.733276 200.200012 1616.666626 197.799988 1619.06665 195.400024 C 1622.800049 191.666687 1619.599976 177.133362 1614.666626 175.266663 C 1611.733276 174.06665 1611.599976 131.666687 1614.533325 131.666687 C 1615.599976 131.666687 1617.466675 130.733337 1618.666626 129.533325 C 1621.333374 126.733337 1619.466675 124.200012 1613.599976 123.133362 C 1611.199951 122.599976 1606.666626 119.799988 1603.333374 117 L 1597.333374 111.666687 L 1596.400024 98.06665 C 1595.866699 90.466675 1595.06665 78.599976 1594.533325 71.533325 L 1593.733276 58.866638 L 1598.666626 53.93335 C 1601.333374 51.266663 1604.666626 49 1606 49 C 1607.333374 49 1609.06665 48.06665 1610 47 C 1612.400024 44.06665 1610.133301 42.06665 1604.133301 41.666687 C 1599.199951 41.400024 1595.199951 43.93335 1598 45.666687 C 1600.93335 47.400024 1596.800049 49.799988 1591.06665 49.799988 C 1585.599976 49.666687 1585.333374 49.533325 1585.333374 45.666687 C 1585.333374 41.799988 1585.06665 41.666687 1579.599976 41.533325 C 1576.400024 41.533325 1573.333374 42.333313 1572.400024 43.266663 Z"></path>
        <path id="path1" fill="#000000" stroke="none" d="M 2356.666748 242.200012 C 2356.666748 247.266663 2356.133301 250.333313 2355.06665 250.733337 C 2353.733398 251.133362 2353.733398 251.93335 2355.06665 254.200012 C 2355.866699 255.666687 2356.666748 259.400024 2356.666748 262.333313 C 2356.666748 267.133362 2356.266602 267.666687 2353.333252 267.666687 C 2350.266602 267.666687 2350.133301 268.200012 2349.733398 275.93335 L 2349.333252 284.333313 L 2344.666748 285 C 2341.06665 285.533325 2340 286.333313 2340 288.333313 C 2340 289.799988 2339.333252 291.400024 2338.399902 292.06665 C 2336 293.533325 2336.266602 310.333313 2338.800049 310.333313 C 2339.866699 310.333313 2340.666748 311.666687 2340.666748 313.533325 C 2340.666748 316.200012 2341.600098 317 2345.733398 317.933319 L 2350.666748 319.133331 L 2351.06665 404.066681 C 2351.333252 486.333344 2351.333252 489 2348.800049 489 C 2347.466553 489 2344.800049 486.733337 2342.800049 483.666656 L 2339.333252 478.333344 L 2329.333252 478.333344 C 2324 478.333344 2319.06665 478.866669 2318.666748 479.666656 C 2318.133301 480.466675 2319.466553 481 2321.733398 481 C 2323.866699 481 2328.399902 481.399994 2331.733398 481.799988 C 2336.93335 482.600006 2338.399902 483.399994 2341.333252 487.799988 C 2344.133301 492.200012 2345.466553 493 2349.333252 493 L 2354 493 L 2354 404.333344 L 2354 315.666687 L 2350.399902 314.866638 C 2343.866699 313.533325 2343.333252 313.133362 2344.266602 310.866638 C 2344.800049 309.400024 2344.133301 307.93335 2342.666748 306.866638 C 2341.333252 305.799988 2340.800049 305 2341.600098 305 C 2344.266602 305 2344.93335 300.466675 2342.533447 298.733337 C 2340.266602 297.133362 2340.266602 296.866638 2342.666748 295.266663 C 2344.133301 294.06665 2344.666748 292.733337 2344 291.666687 C 2342.800049 289.666687 2345.466553 287.666687 2349.600098 287.666687 C 2352.266602 287.666687 2352.533447 286.866638 2352.93335 279.93335 L 2353.333252 272.333313 L 2359.06665 271.93335 L 2364.666748 271.533325 L 2364.666748 279.533325 C 2364.666748 286.599976 2364.93335 287.666687 2367.199951 287.666687 C 2371.733398 287.666687 2374 289.266663 2374 292.333313 C 2374 294.06665 2374.666748 295.666687 2375.466553 295.93335 C 2376.533447 296.333313 2376.533447 297.266663 2375.199951 299.400024 C 2373.866699 301.533325 2373.733398 302.599976 2374.93335 303.799988 C 2375.866699 304.733337 2376 306.200012 2375.333252 307.533325 C 2374.666748 308.733337 2373.866699 310.733337 2373.466553 311.93335 C 2373.06665 313.266663 2371.466553 314.333313 2370 314.333313 C 2368.399902 314.333313 2366.133301 314.866638 2364.800049 315.666687 C 2362.533447 316.866638 2362.399902 321.933319 2362.133301 404.733337 L 2361.866699 492.600006 L 2369.600098 497.399994 C 2388.266602 509 2392.666748 510.733337 2404.266602 511.399994 C 2417.733398 512.200012 2425.600098 510.333344 2435.600098 504.200012 C 2451.333252 494.600006 2469.06665 491.133331 2486.666748 494.200012 C 2491.733398 495.133331 2504.266602 499 2514.533447 502.866669 C 2535.600098 510.866669 2548.133301 513.400024 2564.399902 512.733337 C 2581.333252 512.06665 2578.399902 509.799988 2559.333252 508.866669 C 2539.600098 507.933319 2535.333252 507 2515.199951 499.133331 C 2480.533447 485.666656 2463.333252 485.933319 2434.533447 500.466675 C 2420 507.799988 2419.466553 507.933319 2408.399902 507.933319 C 2395.733398 507.933319 2390 506.066681 2378.133301 497.933319 C 2374.399902 495.266663 2370.133301 492.733337 2368.666748 492.333344 C 2366 491.533325 2366 489.933319 2366 405.133331 L 2366 318.733337 L 2371.600098 317.533325 C 2375.733398 316.599976 2377.466553 315.533325 2377.866699 313.666687 C 2378.133301 312.200012 2378.93335 310.599976 2379.733398 310.06665 C 2381.866699 308.733337 2382.266602 294.599976 2380 293.400024 C 2379.06665 292.733337 2378 290.866638 2377.733398 289 C 2377.466553 286.333313 2376.399902 285.533325 2373.06665 285.266663 C 2368.800049 284.866638 2368.800049 284.866638 2368.399902 276.599976 C 2368 268.733337 2367.866699 268.333313 2364.399902 267.93335 C 2361.06665 267.533325 2360.666748 267 2360.666748 262.06665 C 2360.666748 258.466675 2361.466553 256.06665 2363.06665 254.866638 C 2365.199951 253.133362 2365.199951 252.866638 2363.06665 251.133362 C 2361.333252 249.799988 2360.666748 247.400024 2360.666748 241.799988 C 2360.666748 236.06665 2360.266602 234.333313 2358.666748 234.333313 C 2357.06665 234.333313 2356.666748 236.06665 2356.666748 242.200012 Z"></path>
    </g>
</svg>